<svg width="560" height="268" viewBox="0 0 560 268" fill="none" xmlns="http://www.w3.org/2000/svg">
<g clip-path="url(#clip0_856_488)">
<path d="M42.766 70.5427L39.226 86.1895L39.5669 86.5301C42.2646 80.4697 46.3262 75.9119 51.7717 72.8166C57.2172 69.7313 63.134 68.1886 69.5422 68.1886C72.0093 68.1886 74.4763 68.3589 76.9533 68.6895L72.0694 91.8993C70.3847 91.5588 68.6998 91.2282 67.0151 90.8876C65.3303 90.547 63.6455 90.3867 61.9607 90.3867C57.3576 90.3867 53.4565 91.1681 50.2574 92.7408C47.0583 94.3135 44.3606 96.4371 42.1743 99.1317C39.9881 101.826 38.2432 104.882 36.9495 108.297C35.6558 111.723 34.6229 115.279 33.8306 118.976L25.7476 157.492H2L20.0213 70.5326H42.756L42.766 70.5427Z" fill="#010101"/>
<path d="M90.9332 121.35V124.886C90.9332 129.935 92.5077 134.032 95.6466 137.167C98.7855 140.302 103.619 141.875 110.128 141.875C112.485 141.875 114.591 141.514 116.446 140.783C118.301 140.052 119.926 139.13 121.33 138.008C122.734 136.887 123.967 135.594 125.03 134.142C126.093 132.689 127.076 131.287 127.979 129.935H151.887C149.981 134.873 147.735 139.19 145.147 142.887C142.56 146.583 139.481 149.699 135.881 152.223C132.291 154.747 128.109 156.63 123.335 157.863C118.562 159.095 113.036 159.716 106.748 159.716C100.912 159.716 95.6065 158.934 90.8329 157.362C86.0593 155.789 81.9877 153.405 78.6281 150.209C75.2586 147.014 72.6511 143.057 70.7959 138.349C68.9406 133.641 68.0179 128.142 68.0179 121.861C68.0179 114.909 69.1411 108.207 71.3875 101.756C73.6339 95.3051 76.803 89.5853 80.9046 84.5968C84.9963 79.6082 90.0206 75.6314 95.9775 72.6563C101.924 69.6912 108.603 68.1986 116.015 68.1986C122.082 68.1986 127.608 68.98 132.602 70.5527C137.596 72.1254 141.868 74.5094 145.398 77.7049C148.938 80.9004 151.686 84.8873 153.652 89.6455C155.617 94.4136 156.6 99.9331 156.6 106.214C156.6 110.481 156.149 115.019 155.256 119.837H91.0936C90.9833 120.398 90.9231 120.899 90.9231 121.35H90.9332ZM132.943 98.0499C132.552 95.8662 131.789 93.8727 130.666 92.0796C129.543 90.2866 127.918 88.8541 125.782 87.7922C123.646 86.7304 120.838 86.1895 117.358 86.1895C113.878 86.1895 111.01 86.6904 108.433 87.7021C105.846 88.7139 103.609 90.0561 101.694 91.739C99.7884 93.4219 98.1838 95.3853 96.8901 97.6291C95.5964 99.873 94.5033 102.227 93.6108 104.691H133.524C133.524 102.447 133.324 100.234 132.933 98.0499H132.943Z" fill="#010101"/>
<path d="M25.0657 178.558V190.328H25.4067C28.5456 185.841 32.3364 182.365 36.769 179.9C41.2016 177.436 46.2861 176.204 52.0124 176.204C57.7387 176.204 62.5323 177.276 67.0853 179.399C71.6282 181.533 75.0881 185.29 77.4448 190.669C80.0221 186.862 83.5321 183.497 87.9747 180.571C92.4074 177.656 97.6623 176.194 103.72 176.194C108.323 176.194 112.585 176.755 116.516 177.877C120.447 178.999 123.817 180.792 126.615 183.256C129.423 185.72 131.609 188.946 133.183 192.933C134.758 196.92 135.54 201.708 135.54 207.317V265.517H111.632V216.233C111.632 213.318 111.522 210.573 111.291 207.989C111.06 205.414 110.449 203.17 109.436 201.257C108.423 199.354 106.939 197.841 104.973 196.719C103.008 195.597 100.34 195.036 96.9703 195.036C93.6008 195.036 90.883 195.687 88.8071 196.97C86.7312 198.262 85.1066 199.945 83.9232 202.018C82.7398 204.092 81.9576 206.446 81.5665 209.08C81.1754 211.715 80.9748 214.38 80.9748 217.074V265.517H57.0668V216.734C57.0668 214.159 57.0066 211.605 56.8963 209.08C56.786 206.556 56.3046 204.232 55.4622 202.098C54.6198 199.965 53.2158 198.262 51.2502 196.97C49.2846 195.687 46.3964 195.036 42.5755 195.036C41.4523 195.036 39.9681 195.287 38.1128 195.798C36.2575 196.298 34.4624 197.26 32.7275 198.653C30.9825 200.055 29.4983 202.078 28.2648 204.713C27.0313 207.347 26.4095 210.793 26.4095 215.061V265.527H2.50146V178.568H25.0657V178.558Z" fill="#010101"/>
<path d="M153.381 205.304C153.722 199.694 155.116 195.046 157.593 191.34C160.06 187.644 163.209 184.669 167.02 182.425C170.831 180.181 175.133 178.588 179.906 177.626C184.68 176.675 189.474 176.194 194.307 176.194C198.69 176.194 203.122 176.505 207.615 177.116C212.108 177.737 216.2 178.939 219.91 180.732C223.611 182.525 226.649 185.019 229.006 188.215C231.363 191.41 232.546 195.647 232.546 200.916V246.164C232.546 250.091 232.767 253.847 233.218 257.433C233.669 261.02 234.452 263.714 235.575 265.507H211.326C210.875 264.165 210.513 262.793 210.233 261.39C209.952 259.988 209.751 258.555 209.641 257.103C205.82 261.03 201.327 263.774 196.173 265.347C191.008 266.92 185.733 267.701 180.348 267.701C176.196 267.701 172.325 267.2 168.725 266.188C165.134 265.177 161.985 263.614 159.298 261.48C156.6 259.357 154.494 256.662 152.98 253.407C151.465 250.151 150.703 246.284 150.703 241.797C150.703 236.868 151.576 232.801 153.311 229.606C155.046 226.41 157.292 223.866 160.05 221.953C162.798 220.049 165.947 218.617 169.477 217.665C173.017 216.714 176.577 215.952 180.167 215.391C183.757 214.83 187.297 214.38 190.777 214.049C194.257 213.708 197.346 213.208 200.044 212.536C202.741 211.865 204.867 210.884 206.442 209.591C208.016 208.299 208.738 206.426 208.628 203.952C208.628 201.377 208.207 199.324 207.365 197.811C206.522 196.298 205.399 195.117 203.995 194.275C202.591 193.434 200.966 192.873 199.111 192.592C197.256 192.312 195.26 192.171 193.134 192.171C188.421 192.171 184.71 193.183 182.022 195.197C179.325 197.22 177.75 200.576 177.309 205.294H153.401L153.381 205.304ZM208.618 222.974C207.605 223.876 206.342 224.577 204.827 225.078C203.313 225.579 201.688 225.999 199.943 226.34C198.198 226.681 196.373 226.961 194.468 227.182C192.562 227.412 190.647 227.682 188.742 228.023C186.946 228.364 185.181 228.804 183.436 229.365C181.691 229.926 180.177 230.688 178.893 231.639C177.6 232.591 176.567 233.803 175.775 235.255C174.992 236.718 174.591 238.561 174.591 240.805C174.591 243.049 174.982 244.732 175.775 246.184C176.557 247.647 177.63 248.789 178.974 249.63C180.318 250.471 181.892 251.062 183.687 251.393C185.482 251.734 187.338 251.894 189.243 251.894C193.956 251.894 197.607 251.113 200.184 249.54C202.761 247.967 204.677 246.094 205.91 243.9C207.144 241.716 207.906 239.503 208.187 237.259C208.468 235.015 208.608 233.222 208.608 231.88V222.964L208.618 222.974Z" fill="#010101"/>
<path d="M272.43 178.558V194.706H272.771C273.894 192.011 275.408 189.517 277.314 187.223C279.219 184.929 281.405 182.966 283.882 181.333C286.349 179.71 288.987 178.448 291.795 177.546C294.603 176.645 297.521 176.204 300.55 176.204C302.124 176.204 303.859 176.484 305.775 177.045V199.254C304.651 199.033 303.308 198.833 301.733 198.663C300.159 198.492 298.644 198.412 297.19 198.412C292.808 198.412 289.107 199.143 286.079 200.596C283.05 202.058 280.603 204.042 278.758 206.566C276.903 209.09 275.589 212.035 274.797 215.401C274.014 218.767 273.613 222.413 273.613 226.33V265.527H249.695V178.568H272.43V178.558Z" fill="#010101"/>
<path d="M342.66 145.421V209.842L372.805 178.558H401.096L368.252 210.523L404.797 265.527H375.834L351.926 226.671L342.66 235.586V265.527H318.742V145.421H342.66Z" fill="#010101"/>
<path d="M438.813 244.672C442.404 248.148 447.568 249.89 454.307 249.89C459.131 249.89 463.293 248.688 466.773 246.274C470.253 243.86 472.389 241.316 473.171 238.621H494.221C490.851 249.049 485.687 256.512 478.727 260.99C471.767 265.477 463.343 267.721 453.465 267.721C446.616 267.721 440.438 266.629 434.942 264.445C429.437 262.262 424.783 259.146 420.963 255.109C417.142 251.073 414.193 246.254 412.117 240.645C410.041 235.035 408.998 228.874 408.998 222.143C408.998 215.411 410.062 209.581 412.198 203.972C414.324 198.362 417.362 193.514 421.293 189.417C425.225 185.33 429.908 182.104 435.353 179.74C440.799 177.386 446.836 176.204 453.455 176.204C460.866 176.204 467.314 177.636 472.82 180.491C478.316 183.346 482.839 187.193 486.379 192.011C489.919 196.829 492.466 202.329 494.041 208.499C495.615 214.67 496.167 221.111 495.725 227.843H432.917C433.258 235.576 435.213 241.186 438.813 244.662V244.672ZM465.84 198.913C462.982 195.778 458.62 194.205 452.793 194.205C448.972 194.205 445.803 194.856 443.276 196.138C440.749 197.43 438.733 199.023 437.209 200.936C435.694 202.84 434.621 204.863 434.01 206.987C433.388 209.121 433.027 211.024 432.917 212.707H471.817C470.694 206.646 468.698 202.058 465.84 198.913Z" fill="#010101"/>
<path d="M557.702 178.558V194.535H540.192V237.599C540.192 241.636 540.864 244.331 542.218 245.673C543.561 247.016 546.259 247.697 550.301 247.697C551.644 247.697 552.938 247.647 554.172 247.526C555.405 247.416 556.589 247.246 557.712 247.026V265.527C555.686 265.868 553.44 266.088 550.972 266.199C548.505 266.309 546.089 266.369 543.732 266.369C540.031 266.369 536.521 266.118 533.212 265.608C529.903 265.107 526.984 264.125 524.457 262.662C521.93 261.21 519.934 259.126 518.48 256.442C517.016 253.747 516.294 250.221 516.294 245.844V194.535H501.813V178.558H516.294V152.483H540.202V178.558H557.712H557.702Z" fill="#010101"/>
<path d="M557.702 61.6974V74.6898C517.407 76.9036 480.853 95.3452 469.942 136.666H442.123C459.602 83.2244 528.729 73.087 528.729 73.087V71.8649C528.729 71.8649 482.488 77.7851 459.653 77.7851H181.11L185.001 58.6022H459.653C482.478 58.6022 528.729 64.5223 528.729 64.5223V63.3002C528.729 63.3002 459.602 53.1628 442.123 -0.278931H469.942C480.863 41.042 517.417 59.4836 557.702 61.6974Z" fill="#010101"/>
</g>
<defs>
<clipPath id="clip0_856_488">
<rect width="560" height="268" fill="white"/>
</clipPath>
</defs>
</svg>
